<svg width="12" height="21" viewBox="0 0 12 21" fill="none" xmlns="http://www.w3.org/2000/svg">
<path d="M0.594509 19.6407C0.324454 19.3706 0.172746 19.0043 0.172746 18.6223C0.172746 18.2403 0.324454 17.874 0.594509 17.6038L7.72505 10.4733L0.594509 3.34275C0.332108 3.07107 0.186912 2.70719 0.190194 2.32949C0.193477 1.9518 0.344973 1.5905 0.612056 1.32341C0.879139 1.05633 1.24044 0.904835 1.61814 0.901552C1.99583 0.89827 2.35971 1.04347 2.6314 1.30587L10.7804 9.45486C11.0504 9.72499 11.2021 10.0913 11.2021 10.4733C11.2021 10.8553 11.0504 11.2216 10.7804 11.4917L2.6314 19.6407C2.36126 19.9108 1.99492 20.0625 1.61295 20.0625C1.23098 20.0625 0.864645 19.9108 0.594509 19.6407Z" fill="#2C9CF0"/>
</svg>
